<svg width="4000" height="1200" viewBox="0 0 4000 1200" fill="none" xmlns="http://www.w3.org/2000/svg">
<path d="M3453.35 989.95C3444.29 989.821 3435.33 991.728 3427.1 995.529C3418.88 999.33 3411.61 1004.92 3405.81 1011.91V928.968H3370.83V1144.13H3405.24V1124.12C3411.02 1131.34 3418.34 1137.16 3426.67 1141.11C3435 1145.08 3444.12 1147.07 3453.35 1146.97C3495.33 1146.97 3527.07 1113.59 3527.07 1068.5C3527.07 1023.41 3494.72 989.95 3453.35 989.95ZM3448.08 1114.65C3423.02 1114.65 3404.64 1095.02 3404.64 1068.67C3404.64 1042.32 3423.19 1022.47 3448.36 1022.47C3473.55 1022.47 3491.52 1042.08 3491.52 1068.7C3491.52 1095.34 3473.14 1114.57 3448.08 1114.57V1114.65ZM2865.68 1022.47C2874.3 1022.41 2882.7 1025.14 2889.64 1030.28C2896.57 1035.41 2901.66 1042.66 2904.15 1050.94H2941.16C2934.47 1014.63 2904.71 989.95 2865.97 989.95C2855.63 989.753 2845.35 991.64 2835.75 995.522C2826.15 999.398 2817.43 1005.18 2810.11 1012.52C2802.78 1019.87 2797.01 1028.61 2793.13 1038.24C2789.26 1047.87 2787.36 1058.19 2787.55 1068.58C2787.55 1113.67 2821.07 1147.05 2865.97 1147.05C2903.86 1147.05 2934.19 1122.66 2940.87 1086.07H2904.15C2901.77 1094.38 2896.75 1101.68 2889.86 1106.86C2882.97 1112.04 2874.58 1114.82 2865.97 1114.78C2840.58 1114.78 2822.81 1095.13 2822.81 1068.78C2822.81 1042.44 2840.18 1022.47 2865.68 1022.47ZM3673.43 1044.72C3673.43 1011.94 3653.59 989.991 3611.6 989.991C3571.97 989.991 3549.82 1010.32 3545.45 1041.23H3580.14C3581.89 1029.03 3591.2 1019.27 3611.04 1019.27C3628.82 1019.27 3637.56 1027.15 3637.56 1036.83C3637.56 1049.39 3621.36 1052.61 3601.73 1054.68C3574.89 1057.61 3541.64 1066.88 3541.64 1102.09C3541.64 1129.32 3561.89 1146.81 3593.83 1146.81C3618.89 1146.81 3634.64 1136.28 3642.42 1119.57C3643.55 1134.49 3654.55 1144.17 3670.11 1144.17H3690.35V1112.86H3673.15L3673.43 1044.72ZM3639.02 1082.78C3639.02 1103.1 3621.52 1117.9 3600.27 1117.9C3587.14 1117.9 3575.97 1112.34 3575.97 1100.62C3575.97 1085.7 3593.75 1081.59 3610.06 1079.85C3626.38 1078.1 3634.36 1074.88 3638.93 1068.14L3639.02 1082.78ZM3120.75 1024.11H3142.62V1144.13H3177.6V992.798H3120.91L3120.75 1024.11ZM3287.19 989.95C3264.44 989.95 3249.58 999.302 3240.83 1012.48V992.798H3206.14V1144.13H3241V1061.88C3241 1038.74 3255.69 1022.47 3277.43 1022.47C3297.67 1022.47 3310.06 1036.83 3310.06 1057.61V1144.13H3345.04V1055C3344.88 1016.79 3325.37 989.95 3287.19 989.95ZM3160.02 930.433C3157.07 930.33 3154.13 930.821 3151.38 931.897C3148.62 932.973 3146.12 934.608 3144.01 936.685C3141.91 938.77 3140.25 941.256 3139.14 944.008C3138.03 946.759 3137.49 949.709 3137.56 952.672C3137.8 958.482 3140.27 963.979 3144.46 968.004C3148.63 972.03 3154.21 974.277 3160.01 974.277C3165.79 974.277 3171.37 972.03 3175.55 968.004C3179.74 963.979 3182.21 958.482 3182.45 952.672C3182.52 949.709 3181.98 946.759 3180.87 944.008C3179.77 941.263 3178.11 938.77 3176.01 936.685C3173.92 934.608 3171.41 932.973 3168.66 931.897C3165.91 930.821 3162.97 930.33 3160.02 930.433ZM3032.12 989.95C3021.77 989.726 3011.47 991.606 3001.85 995.468C2992.24 999.343 2983.49 1005.12 2976.16 1012.46C2968.82 1019.8 2963.03 1028.56 2959.15 1038.2C2955.26 1047.85 2953.35 1058.18 2953.54 1068.58C2953.54 1113.67 2987.06 1147.05 3031.97 1147.05C3042.38 1147.35 3052.75 1145.54 3062.44 1141.69C3072.14 1137.86 3080.94 1132.08 3088.35 1124.71C3095.74 1117.35 3101.58 1108.55 3105.49 1098.85C3109.41 1089.16 3111.32 1078.76 3111.11 1068.29C3111.11 1023.82 3077.59 989.95 3032.12 989.95ZM3032.41 1114.65C3007.35 1114.65 2988.96 1095.02 2988.96 1068.67C2988.96 1042.32 3007.06 1022.47 3032.12 1022.47C3057.19 1022.47 3075.85 1042.36 3075.85 1068.7C3075.85 1095.05 3057.47 1114.57 3032.41 1114.57V1114.65ZM3925.57 989.95C3880.68 989.95 3847.72 1023.9 3847.72 1068.67C3847.72 1115.82 3883.02 1147.14 3926.15 1147.14C3962.57 1147.14 3991.16 1125.46 3998.45 1094.73H3962.01C3956.75 1108.19 3943.91 1115.82 3926.74 1115.82C3904.28 1115.82 3887.4 1101.76 3883.59 1077.16H3999.3V1063.62C3999.3 1020.28 3967.84 989.95 3925.57 989.95ZM3885.61 1051.99C3891.17 1030.93 3906.91 1020.69 3924.97 1020.69C3944.81 1020.69 3959.95 1032.08 3963.47 1051.99H3885.61ZM3785.37 1054.02L3759.7 1050.25C3747.56 1048.5 3738.74 1044.39 3738.74 1034.72C3738.74 1024.18 3750.07 1018.91 3765.53 1018.91C3782.46 1018.91 3793.23 1026.22 3795.57 1038.26H3829.38C3825.58 1007.8 3802.26 989.95 3766.43 989.95C3729.38 989.95 3704.88 1008.97 3704.88 1035.9C3704.88 1061.67 3721.08 1076.55 3753.47 1081.26L3779.09 1085.09C3791.65 1086.84 3798.65 1091.79 3798.65 1101.35C3798.65 1113.34 3786.5 1118.31 3769.5 1118.31C3748.77 1118.31 3737.11 1109.81 3735.37 1096.96H3701C3704.2 1126.52 3727.23 1147.29 3769.18 1147.29C3807.4 1147.29 3832.73 1129.73 3832.73 1099.56C3832.58 1072.4 3814.2 1058.34 3785.37 1053.94V1054.02Z" fill="white"/>
<path d="M2424.45 1144.4V928.397H2462.18V1013.98H2462.47C2471.47 997.968 2486.85 987.778 2510.07 987.778C2553.61 987.778 2576.54 1025.34 2576.54 1068.13C2576.54 1111.21 2553.89 1148.47 2510.07 1148.47C2485.11 1148.47 2469.15 1137.12 2460.44 1118.78H2460.15V1144.4H2424.45ZM2538.51 1075.11V1061.72C2538.51 1034.65 2521.68 1019.22 2500.49 1019.22C2479.31 1019.22 2462.18 1035.23 2462.18 1061.72V1075.11C2462.18 1101.6 2479.31 1117.62 2500.49 1117.62C2521.68 1117.62 2538.51 1102.19 2538.51 1075.11ZM2665.95 1156.63C2654.05 1188.35 2637.21 1200 2607.03 1200H2574.82V1169.43H2605.29C2617.19 1169.43 2622.42 1166.52 2627.64 1153.13L2632.28 1140.03L2573.36 991.858H2615.16L2652.31 1097.24H2652.6L2689.17 991.858H2727.19L2665.95 1156.63Z" fill="white"/>
<path d="M190.153 953.591H0V762.873H190.153V381.436H0V190.718H190.153V0H380.306V190.718H570.458V0H760.611V190.718C970.839 190.718 1140.92 361.302 1140.92 572.155C1140.92 783.007 970.839 953.591 760.611 953.591V1144.31H570.458V953.591H380.306V1144.31H190.153V953.591ZM380.306 762.873H760.611C865.725 762.873 950.764 677.581 950.764 572.155C950.764 466.728 865.725 381.436 760.611 381.436H380.306V762.873Z" fill="#0052FF"/>
<path d="M1690.11 321.013C1735.65 344.301 1771.13 378.174 1796.02 421.576C1820.91 464.978 1833.62 515.26 1833.62 572.952C1833.62 630.637 1820.91 680.394 1796.02 723.265C1771.13 766.136 1735.65 799.484 1690.11 822.772C1644.57 846.06 1591.61 858.232 1531.24 858.232H1331.07V286.078H1531.24C1591.61 286.078 1644.57 297.725 1690.11 321.013ZM1666.81 711.618C1699.64 678.807 1716.06 632.756 1716.06 572.952C1716.06 513.141 1699.64 466.565 1666.81 433.217C1633.98 399.344 1587.38 382.935 1527.53 382.935H1446.51V761.375H1527.53C1587.38 760.843 1633.98 744.435 1666.81 711.618Z" fill="white"/>
<path d="M2333.41 664.224H2003.51C2006.14 697.075 2017.7 723.04 2037.66 741.588C2057.62 760.135 2082.31 769.671 2111.72 769.671C2154.28 769.671 2184.22 751.124 2202.08 714.567H2325C2311.86 758.541 2287.18 794.573 2249.88 822.657C2213.11 850.74 2167.41 865.044 2113.83 865.044C2070.23 865.044 2031.36 855.508 1997.21 835.905C1962.54 816.295 1935.75 788.743 1916.84 753.242C1897.4 717.741 1887.95 676.417 1887.95 629.786C1887.95 582.631 1897.4 541.3 1916.31 505.799C1935.23 470.298 1962.01 442.746 1996.16 423.674C2030.3 404.595 2069.7 395.06 2114.35 395.06C2157.43 395.06 2195.78 404.595 2229.39 423.143C2263.54 441.69 2289.8 468.179 2308.19 502.618C2327.1 537.063 2336.03 576.269 2336.03 620.25C2336.56 636.148 2335.5 650.983 2333.41 664.224ZM2218.36 586.868C2217.83 557.197 2207.33 533.882 2186.85 515.866C2166.36 497.85 2141.14 489.376 2111.2 489.376C2082.83 489.376 2059.19 497.85 2039.76 515.335C2020.32 532.819 2008.77 556.666 2004.56 587.399L2218.36 586.868Z" fill="white"/>
<path d="M2595.1 415.8C2618.66 401.973 2645.36 395.06 2675.72 395.06V516.302H2645.88C2610.29 516.302 2583.06 524.809 2565.26 541.831C2546.95 558.846 2538.04 588.625 2538.04 630.637V858.232H2424.45V401.973H2538.04V472.696C2552.7 448.767 2571.54 429.627 2595.1 415.8Z" fill="white"/>
<path d="M2763.04 332.749C2750.27 320.114 2743.63 304.318 2743.63 284.831C2743.63 265.882 2750.27 250.079 2763.04 236.92C2775.8 224.285 2792.14 217.964 2811.55 217.964C2830.95 217.964 2847.29 224.285 2860.05 236.92C2872.82 249.555 2879.46 265.882 2879.46 284.831C2879.46 303.787 2872.82 319.583 2860.05 332.749C2847.29 345.384 2830.95 351.705 2811.55 351.705C2792.14 351.705 2775.8 345.384 2763.04 332.749ZM2866.18 405.937V858.232H2755.38V405.937H2866.18Z" fill="white"/>
<path d="M3155.74 417.815C3181.47 404.09 3210.89 397.225 3243.99 397.225C3282.34 397.225 3317.54 406.726 3348.53 425.737C3379.53 444.747 3404.21 472.204 3422.6 507.051C3440.99 542.429 3449.92 583.086 3449.92 629.547C3449.92 676.014 3440.99 717.202 3422.6 752.574C3404.21 788.483 3379.53 815.94 3348.53 835.475C3317.54 855.01 3282.34 865.043 3243.99 865.043C3210.36 865.043 3180.95 858.177 3155.74 844.976C3130.52 831.776 3110.03 814.353 3095.32 793.231V857.652H2981.33V252.02H3095.32V470.617C3109.5 448.97 3129.47 431.016 3155.74 417.815ZM3316.48 558.797C3305.45 538.731 3290.74 523.943 3272.35 513.386C3253.97 502.828 3234.53 498.074 3213.52 498.074C3193.03 498.074 3173.6 503.353 3155.21 513.917C3136.82 524.475 3122.11 539.786 3111.08 560.377C3100.05 580.443 3094.27 604.201 3094.27 631.658C3094.27 659.115 3100.05 682.88 3111.08 702.946C3122.11 723.005 3136.82 738.317 3155.21 749.406C3173.6 759.971 3193.03 765.249 3213.52 765.249C3234.53 765.249 3254.49 759.971 3272.35 748.882C3290.74 737.793 3305.45 722.481 3316.48 702.415C3327.51 682.348 3333.29 658.059 3333.29 630.602C3333.29 602.09 3328.04 578.856 3316.48 558.797Z" fill="white"/>
<path d="M3544.99 332.749C3531.59 320.114 3524.62 304.318 3524.62 284.831C3524.62 265.882 3531.59 250.079 3544.99 236.92C3558.4 224.285 3575.55 217.964 3595.93 217.964C3616.3 217.964 3633.45 224.285 3646.86 236.92C3660.27 249.555 3667.23 265.882 3667.23 284.831C3667.23 303.787 3660.27 319.583 3646.86 332.749C3633.45 345.384 3616.3 351.705 3595.93 351.705C3575.55 351.705 3558.4 345.384 3544.99 332.749ZM3653.29 405.937V858.232H3536.95V405.937H3653.29Z" fill="white"/>
<path d="M3897.27 499.286V718.347C3897.27 733.658 3900.98 744.74 3908.39 751.6C3915.8 758.465 3927.99 761.633 3945.99 761.633H3999.47V858.231H3927.46C3830.55 858.231 3782.36 811.254 3782.36 717.291V499.286H3728.35V405.323H3782.36V292.888H3898.33V404.799H4000V498.755H3897.27V499.286Z" fill="white"/>
</svg>
