<svg width="4000" height="1201" viewBox="0 0 4000 1201" fill="none" xmlns="http://www.w3.org/2000/svg">
<path d="M3453.35 990.393C3444.29 990.264 3435.33 992.171 3427.1 995.972C3418.88 999.772 3411.61 1005.36 3405.81 1012.35V929.411H3370.83V1144.57H3405.24V1124.56C3411.02 1131.78 3418.34 1137.6 3426.67 1141.56C3435 1145.52 3444.12 1147.52 3453.35 1147.41C3495.33 1147.41 3527.07 1114.03 3527.07 1068.94C3527.07 1023.86 3494.72 990.393 3453.35 990.393ZM3448.08 1115.09C3423.02 1115.09 3404.64 1095.46 3404.64 1069.11C3404.64 1042.76 3423.19 1022.92 3448.36 1022.92C3473.55 1022.92 3491.52 1042.52 3491.52 1069.15C3491.52 1095.78 3473.14 1115.01 3448.08 1115.01V1115.09ZM2865.68 1022.92C2874.3 1022.86 2882.7 1025.59 2889.64 1030.72C2896.57 1035.85 2901.66 1043.1 2904.15 1051.38H2941.16C2934.47 1015.08 2904.71 990.393 2865.97 990.393C2855.63 990.196 2845.35 992.082 2835.75 995.965C2826.15 999.84 2817.43 1005.62 2810.11 1012.97C2802.78 1020.31 2797.01 1029.05 2793.13 1038.69C2789.26 1048.32 2787.36 1058.64 2787.55 1069.02C2787.55 1114.11 2821.07 1147.49 2865.97 1147.49C2903.86 1147.49 2934.19 1123.11 2940.87 1086.52H2904.15C2901.77 1094.82 2896.75 1102.12 2889.86 1107.3C2882.97 1112.49 2874.58 1115.27 2865.97 1115.22C2840.58 1115.22 2822.81 1095.57 2822.81 1069.23C2822.81 1042.88 2840.18 1022.92 2865.68 1022.92ZM3673.43 1045.16C3673.43 1012.39 3653.59 990.434 3611.6 990.434C3571.97 990.434 3549.82 1010.77 3545.45 1041.67H3580.14C3581.89 1029.47 3591.2 1019.71 3611.04 1019.71C3628.82 1019.71 3637.56 1027.6 3637.56 1037.27C3637.56 1049.84 3621.36 1053.05 3601.73 1055.12C3574.89 1058.05 3541.64 1067.32 3541.64 1102.53C3541.64 1129.77 3561.89 1147.25 3593.83 1147.25C3618.89 1147.25 3634.64 1136.72 3642.42 1120.01C3643.55 1134.93 3654.55 1144.61 3670.11 1144.61H3690.35V1113.3H3673.15L3673.43 1045.16ZM3639.02 1083.22C3639.02 1103.54 3621.52 1118.34 3600.27 1118.34C3587.14 1118.34 3575.97 1112.78 3575.97 1101.06C3575.97 1086.14 3593.75 1082.03 3610.06 1080.29C3626.38 1078.55 3634.36 1075.32 3638.93 1068.58L3639.02 1083.22ZM3120.75 1024.55H3142.62V1144.57H3177.6V993.24H3120.91L3120.75 1024.55ZM3287.19 990.393C3264.44 990.393 3249.58 999.745 3240.83 1012.92V993.24H3206.14V1144.57H3241V1062.32C3241 1039.18 3255.69 1022.92 3277.43 1022.92C3297.67 1022.92 3310.06 1037.27 3310.06 1058.05V1144.57H3345.04V1055.44C3344.88 1017.23 3325.37 990.393 3287.19 990.393ZM3160.02 930.875C3157.07 930.773 3154.13 931.264 3151.38 932.34C3148.62 933.416 3146.12 935.051 3144.01 937.128C3141.91 939.212 3140.25 941.698 3139.14 944.45C3138.03 947.202 3137.49 950.151 3137.56 953.114C3137.8 958.924 3140.27 964.421 3144.46 968.447C3148.63 972.472 3154.21 974.72 3160.01 974.72C3165.79 974.72 3171.37 972.472 3175.55 968.447C3179.74 964.421 3182.21 958.924 3182.45 953.114C3182.52 950.151 3181.98 947.202 3180.87 944.45C3179.77 941.705 3178.11 939.212 3176.01 937.128C3173.92 935.051 3171.41 933.416 3168.66 932.34C3165.91 931.264 3162.97 930.773 3160.02 930.875ZM3032.12 990.393C3021.77 990.168 3011.47 992.048 3001.85 995.91C2992.24 999.786 2983.49 1005.56 2976.16 1012.9C2968.82 1020.25 2963.03 1029.01 2959.15 1038.64C2955.26 1048.29 2953.35 1058.62 2953.54 1069.02C2953.54 1114.11 2987.06 1147.49 3031.97 1147.49C3042.38 1147.8 3052.75 1145.98 3062.44 1142.14C3072.14 1138.3 3080.94 1132.52 3088.35 1125.16C3095.74 1117.79 3101.58 1108.99 3105.49 1099.29C3109.41 1089.6 3111.32 1079.21 3111.11 1068.74C3111.11 1024.27 3077.59 990.393 3032.12 990.393ZM3032.41 1115.09C3007.35 1115.09 2988.96 1095.46 2988.96 1069.11C2988.96 1042.76 3007.06 1022.92 3032.12 1022.92C3057.19 1022.92 3075.85 1042.8 3075.85 1069.15C3075.85 1095.49 3057.47 1115.01 3032.41 1115.01V1115.09ZM3925.57 990.393C3880.68 990.393 3847.72 1024.35 3847.72 1069.11C3847.72 1116.27 3883.02 1147.58 3926.15 1147.58C3962.57 1147.58 3991.16 1125.91 3998.45 1095.17H3962.01C3956.75 1108.63 3943.91 1116.27 3926.74 1116.27C3904.28 1116.27 3887.4 1102.2 3883.59 1077.61H3999.3V1064.06C3999.3 1020.72 3967.84 990.393 3925.57 990.393ZM3885.61 1052.44C3891.17 1031.38 3906.91 1021.13 3924.97 1021.13C3944.81 1021.13 3959.95 1032.52 3963.47 1052.44H3885.61ZM3785.37 1054.47L3759.7 1050.69C3747.56 1048.94 3738.74 1044.83 3738.74 1035.16C3738.74 1024.63 3750.07 1019.35 3765.53 1019.35C3782.46 1019.35 3793.23 1026.66 3795.57 1038.7H3829.38C3825.58 1008.24 3802.26 990.393 3766.43 990.393C3729.38 990.393 3704.88 1009.42 3704.88 1036.34C3704.88 1062.12 3721.08 1076.99 3753.47 1081.71L3779.09 1085.53C3791.65 1087.28 3798.65 1092.24 3798.65 1101.79C3798.65 1113.79 3786.5 1118.75 3769.5 1118.75C3748.77 1118.75 3737.11 1110.25 3735.37 1097.41H3701C3704.2 1126.96 3727.23 1147.74 3769.18 1147.74C3807.4 1147.74 3832.73 1130.18 3832.73 1100C3832.58 1072.84 3814.2 1058.79 3785.37 1054.39V1054.47Z" fill="#0052FF"/>
<path d="M2424.45 1144.84V928.84H2462.18V1014.42H2462.47C2471.47 998.411 2486.85 988.221 2510.07 988.221C2553.61 988.221 2576.54 1025.78 2576.54 1068.57C2576.54 1111.65 2553.89 1148.91 2510.07 1148.91C2485.11 1148.91 2469.15 1137.56 2460.44 1119.22H2460.15V1144.84H2424.45ZM2538.51 1075.56V1062.17C2538.51 1035.09 2521.68 1019.66 2500.49 1019.66C2479.31 1019.66 2462.18 1035.68 2462.18 1062.17V1075.56C2462.18 1102.05 2479.31 1118.06 2500.49 1118.06C2521.68 1118.06 2538.51 1102.63 2538.51 1075.56ZM2665.95 1157.07C2654.05 1188.8 2637.21 1200.44 2607.03 1200.44H2574.82V1169.87H2605.29C2617.19 1169.87 2622.42 1166.97 2627.64 1153.57L2632.28 1140.47L2573.36 992.301H2615.16L2652.31 1097.68H2652.6L2689.17 992.301H2727.19L2665.95 1157.07Z" fill="#0A0B0D"/>
<path d="M190.153 954.034H0V763.316H190.153V381.879H0V191.161H190.153V0.442627H380.306V191.161H570.458V0.442627H760.611V191.161C970.839 191.161 1140.92 361.745 1140.92 572.597C1140.92 783.45 970.839 954.034 760.611 954.034V1144.75H570.458V954.034H380.306V1144.75H190.153V954.034ZM380.306 763.316H760.611C865.725 763.316 950.764 678.024 950.764 572.597C950.764 467.171 865.725 381.879 760.611 381.879H380.306V763.316Z" fill="#0052FF"/>
<path d="M1690.11 321.456C1735.65 344.744 1771.13 378.617 1796.02 422.019C1820.91 465.421 1833.62 515.702 1833.62 573.395C1833.62 631.08 1820.91 680.837 1796.02 723.708C1771.13 766.578 1735.65 799.927 1690.11 823.215C1644.57 846.503 1591.61 858.675 1531.24 858.675H1331.07V286.52H1531.24C1591.61 286.52 1644.57 298.168 1690.11 321.456ZM1666.81 712.06C1699.64 679.25 1716.06 633.198 1716.06 573.395C1716.06 513.584 1699.64 467.008 1666.81 433.659C1633.98 399.786 1587.38 383.378 1527.53 383.378H1446.51V761.817H1527.53C1587.38 761.286 1633.98 744.877 1666.81 712.06Z" fill="#0A0B0D"/>
<path d="M2333.41 664.667H2003.51C2006.14 697.518 2017.7 723.483 2037.66 742.03C2057.62 760.578 2082.31 770.114 2111.72 770.114C2154.28 770.114 2184.22 751.566 2202.08 715.01H2325C2311.86 758.984 2287.18 795.016 2249.88 823.099C2213.11 851.183 2167.41 865.486 2113.83 865.486C2070.23 865.486 2031.36 855.95 1997.21 836.347C1962.54 816.737 1935.75 789.185 1916.84 753.685C1897.4 718.184 1887.95 676.859 1887.95 630.229C1887.95 583.074 1897.4 541.742 1916.31 506.241C1935.23 470.741 1962.01 443.188 1996.16 424.117C2030.3 405.038 2069.7 395.502 2114.35 395.502C2157.43 395.502 2195.78 405.038 2229.39 423.585C2263.54 442.133 2289.8 468.622 2308.19 503.06C2327.1 537.505 2336.03 576.712 2336.03 620.693C2336.56 636.59 2335.5 651.426 2333.41 664.667ZM2218.36 587.31C2217.83 557.64 2207.33 534.325 2186.85 516.309C2166.36 498.292 2141.14 489.819 2111.2 489.819C2082.83 489.819 2059.19 498.292 2039.76 515.777C2020.32 533.262 2008.77 557.109 2004.56 587.842L2218.36 587.31Z" fill="#0A0B0D"/>
<path d="M2595.1 416.243C2618.66 402.416 2645.36 395.502 2675.72 395.502V516.744H2645.88C2610.29 516.744 2583.06 525.252 2565.26 542.274C2546.95 559.288 2538.04 589.068 2538.04 631.08V858.675H2424.45V402.416H2538.04V473.138C2552.7 449.21 2571.54 430.07 2595.1 416.243Z" fill="#0A0B0D"/>
<path d="M2763.04 333.192C2750.27 320.556 2743.63 304.761 2743.63 285.274C2743.63 266.324 2750.27 250.522 2763.04 237.362C2775.8 224.727 2792.14 218.406 2811.55 218.406C2830.95 218.406 2847.29 224.727 2860.05 237.362C2872.82 249.998 2879.46 266.324 2879.46 285.274C2879.46 304.23 2872.82 320.025 2860.05 333.192C2847.29 345.827 2830.95 352.148 2811.55 352.148C2792.14 352.148 2775.8 345.827 2763.04 333.192ZM2866.18 406.38V858.675H2755.38V406.38H2866.18Z" fill="#0A0B0D"/>
<path d="M3155.74 418.258C3181.47 404.533 3210.89 397.667 3243.99 397.667C3282.34 397.667 3317.54 407.169 3348.53 426.179C3379.53 445.19 3404.21 472.646 3422.6 507.493C3440.99 542.872 3449.92 583.529 3449.92 629.989C3449.92 676.456 3440.99 717.645 3422.6 753.016C3404.21 788.926 3379.53 816.382 3348.53 835.917C3317.54 855.452 3282.34 865.485 3243.99 865.485C3210.36 865.485 3180.95 858.619 3155.74 845.419C3130.52 832.218 3110.03 814.795 3095.32 793.673V858.095H2981.33V252.462H3095.32V471.059C3109.5 449.413 3129.47 431.458 3155.74 418.258ZM3316.48 559.239C3305.45 539.173 3290.74 524.386 3272.35 513.828C3253.97 503.271 3234.53 498.516 3213.52 498.516C3193.03 498.516 3173.6 503.795 3155.21 514.359C3136.82 524.917 3122.11 540.229 3111.08 560.82C3100.05 580.886 3094.27 604.644 3094.27 632.101C3094.27 659.557 3100.05 683.322 3111.08 703.388C3122.11 723.448 3136.82 738.76 3155.21 749.849C3173.6 760.413 3193.03 765.692 3213.52 765.692C3234.53 765.692 3254.49 760.413 3272.35 749.324C3290.74 738.235 3305.45 722.923 3316.48 702.857C3327.51 682.791 3333.29 658.501 3333.29 631.045C3333.29 602.532 3328.04 579.299 3316.48 559.239Z" fill="#0A0B0D"/>
<path d="M3544.99 333.192C3531.59 320.556 3524.62 304.761 3524.62 285.274C3524.62 266.324 3531.59 250.522 3544.99 237.362C3558.4 224.727 3575.55 218.406 3595.93 218.406C3616.3 218.406 3633.45 224.727 3646.86 237.362C3660.27 249.998 3667.23 266.324 3667.23 285.274C3667.23 304.23 3660.27 320.025 3646.86 333.192C3633.45 345.827 3616.3 352.148 3595.93 352.148C3575.55 352.148 3558.4 345.827 3544.99 333.192ZM3653.29 406.38V858.675H3536.95V406.38H3653.29Z" fill="#0A0B0D"/>
<path d="M3897.27 499.729V718.789C3897.27 734.101 3900.98 745.183 3908.39 752.042C3915.8 758.908 3927.99 762.075 3945.99 762.075H3999.47V858.674H3927.46C3830.55 858.674 3782.36 811.696 3782.36 717.734V499.729H3728.35V405.766H3782.36V293.331H3898.33V405.242H4000V499.198H3897.27V499.729Z" fill="#0A0B0D"/>
</svg>
