<svg width="4000" height="1201" viewBox="0 0 4000 1201" fill="none" xmlns="http://www.w3.org/2000/svg">
<path d="M3453.35 990.836C3444.29 990.706 3435.33 992.613 3427.1 996.414C3418.88 1000.21 3411.61 1005.81 3405.81 1012.8V929.854H3370.83V1145.01H3405.24V1125.01C3411.02 1132.23 3418.34 1138.04 3426.67 1142C3435 1145.96 3444.12 1147.96 3453.35 1147.85C3495.33 1147.85 3527.07 1114.48 3527.07 1069.38C3527.07 1024.3 3494.72 990.836 3453.35 990.836ZM3448.08 1115.53C3423.02 1115.53 3404.64 1095.9 3404.64 1069.55C3404.64 1043.2 3423.19 1023.36 3448.36 1023.36C3473.55 1023.36 3491.52 1042.96 3491.52 1069.59C3491.52 1096.22 3473.14 1115.46 3448.08 1115.46V1115.53ZM2865.68 1023.36C2874.3 1023.3 2882.7 1026.03 2889.64 1031.17C2896.57 1036.29 2901.66 1043.54 2904.15 1051.82H2941.16C2934.47 1015.52 2904.71 990.836 2865.97 990.836C2855.63 990.638 2845.35 992.525 2835.75 996.407C2826.15 1000.28 2817.43 1006.07 2810.11 1013.41C2802.78 1020.75 2797.01 1029.5 2793.13 1039.13C2789.26 1048.76 2787.36 1059.08 2787.55 1069.47C2787.55 1114.56 2821.07 1147.93 2865.97 1147.93C2903.86 1147.93 2934.19 1123.55 2940.87 1086.96H2904.15C2901.77 1095.27 2896.75 1102.56 2889.86 1107.75C2882.97 1112.93 2874.58 1115.71 2865.97 1115.66C2840.58 1115.66 2822.81 1096.02 2822.81 1069.67C2822.81 1043.32 2840.18 1023.36 2865.68 1023.36ZM3673.43 1045.61C3673.43 1012.83 3653.59 990.876 3611.6 990.876C3571.97 990.876 3549.82 1011.21 3545.45 1042.11H3580.14C3581.89 1029.91 3591.2 1020.15 3611.04 1020.15C3628.82 1020.15 3637.56 1028.04 3637.56 1037.71C3637.56 1050.28 3621.36 1053.49 3601.73 1055.56C3574.89 1058.49 3541.64 1067.76 3541.64 1102.97C3541.64 1130.21 3561.89 1147.69 3593.83 1147.69C3618.89 1147.69 3634.64 1137.16 3642.42 1120.46C3643.55 1135.37 3654.55 1145.05 3670.11 1145.05H3690.35V1113.75H3673.15L3673.43 1045.61ZM3639.02 1083.66C3639.02 1103.99 3621.52 1118.79 3600.27 1118.79C3587.14 1118.79 3575.97 1113.22 3575.97 1101.51C3575.97 1086.58 3593.75 1082.48 3610.06 1080.73C3626.38 1078.99 3634.36 1075.77 3638.93 1069.02L3639.02 1083.66ZM3120.75 1024.99H3142.62V1145.01H3177.6V993.683H3120.91L3120.75 1024.99ZM3287.19 990.836C3264.44 990.836 3249.58 1000.19 3240.83 1013.36V993.683H3206.14V1145.01H3241V1062.76C3241 1039.63 3255.69 1023.36 3277.43 1023.36C3297.67 1023.36 3310.06 1037.71 3310.06 1058.49V1145.01H3345.04V1055.88C3344.88 1017.67 3325.37 990.836 3287.19 990.836ZM3160.02 931.318C3157.07 931.216 3154.13 931.706 3151.38 932.782C3148.62 933.859 3146.12 935.493 3144.01 937.571C3141.91 939.655 3140.25 942.141 3139.14 944.893C3138.03 947.645 3137.49 950.594 3137.56 953.557C3137.8 959.367 3140.27 964.864 3144.46 968.889C3148.63 972.915 3154.21 975.163 3160.01 975.163C3165.79 975.163 3171.37 972.915 3175.55 968.889C3179.74 964.864 3182.21 959.367 3182.45 953.557C3182.52 950.594 3181.98 947.645 3180.87 944.893C3179.77 942.148 3178.11 939.655 3176.01 937.571C3173.92 935.493 3171.41 933.859 3168.66 932.782C3165.91 931.706 3162.97 931.216 3160.02 931.318ZM3032.12 990.836C3021.77 990.611 3011.47 992.491 3001.85 996.353C2992.24 1000.23 2983.49 1006 2976.16 1013.35C2968.82 1020.69 2963.03 1029.45 2959.15 1039.09C2955.26 1048.73 2953.35 1059.06 2953.54 1069.47C2953.54 1114.56 2987.06 1147.93 3031.97 1147.93C3042.38 1148.24 3052.75 1146.42 3062.44 1142.58C3072.14 1138.74 3080.94 1132.96 3088.35 1125.6C3095.74 1118.24 3101.58 1109.44 3105.49 1099.74C3109.41 1090.04 3111.32 1079.65 3111.11 1069.18C3111.11 1024.71 3077.59 990.836 3032.12 990.836ZM3032.41 1115.53C3007.35 1115.53 2988.96 1095.9 2988.96 1069.55C2988.96 1043.2 3007.06 1023.36 3032.12 1023.36C3057.19 1023.36 3075.85 1043.24 3075.85 1069.59C3075.85 1095.93 3057.47 1115.46 3032.41 1115.46V1115.53ZM3925.57 990.836C3880.68 990.836 3847.72 1024.79 3847.72 1069.55C3847.72 1116.71 3883.02 1148.02 3926.15 1148.02C3962.57 1148.02 3991.16 1126.35 3998.45 1095.61H3962.01C3956.75 1109.07 3943.91 1116.71 3926.74 1116.71C3904.28 1116.71 3887.4 1102.64 3883.59 1078.05H3999.3V1064.51C3999.3 1021.17 3967.84 990.836 3925.57 990.836ZM3885.61 1052.88C3891.17 1031.82 3906.91 1021.58 3924.97 1021.58C3944.81 1021.58 3959.95 1032.96 3963.47 1052.88H3885.61ZM3785.37 1054.91L3759.7 1051.14C3747.56 1049.39 3738.74 1045.27 3738.74 1035.61C3738.74 1025.07 3750.07 1019.79 3765.53 1019.79C3782.46 1019.79 3793.23 1027.11 3795.57 1039.14H3829.38C3825.58 1008.68 3802.26 990.836 3766.43 990.836C3729.38 990.836 3704.88 1009.86 3704.88 1036.79C3704.88 1062.56 3721.08 1077.44 3753.47 1082.15L3779.09 1085.98C3791.65 1087.73 3798.65 1092.68 3798.65 1102.24C3798.65 1114.23 3786.5 1119.2 3769.5 1119.2C3748.77 1119.2 3737.11 1110.7 3735.37 1097.85H3701C3704.2 1127.4 3727.23 1148.18 3769.18 1148.18C3807.4 1148.18 3832.73 1130.62 3832.73 1100.44C3832.58 1073.29 3814.2 1059.23 3785.37 1054.83V1054.91Z" fill="white"/>
<path d="M2424.45 1145.28V929.282H2462.18V1014.87H2462.47C2471.47 998.854 2486.85 988.664 2510.07 988.664C2553.61 988.664 2576.54 1026.22 2576.54 1069.01C2576.54 1112.09 2553.89 1149.36 2510.07 1149.36C2485.11 1149.36 2469.15 1138 2460.44 1119.67H2460.15V1145.28H2424.45ZM2538.51 1076V1062.61C2538.51 1035.53 2521.68 1020.11 2500.49 1020.11C2479.31 1020.11 2462.18 1036.12 2462.18 1062.61V1076C2462.18 1102.49 2479.31 1118.5 2500.49 1118.5C2521.68 1118.5 2538.51 1103.07 2538.51 1076ZM2665.95 1157.51C2654.05 1189.24 2637.21 1200.89 2607.03 1200.89H2574.82V1170.32H2605.29C2617.19 1170.32 2622.42 1167.41 2627.64 1154.02L2632.28 1140.91L2573.36 992.744H2615.16L2652.31 1098.12H2652.6L2689.17 992.744H2727.19L2665.95 1157.51Z" fill="white"/>
<path d="M190.153 954.476H0V763.758H190.153V382.322H0V191.603H190.153V0.885254H380.306V191.603H570.458V0.885254H760.611V191.603C970.839 191.603 1140.92 362.187 1140.92 573.04C1140.92 783.893 970.839 954.476 760.611 954.476V1145.19H570.458V954.476H380.306V1145.19H190.153V954.476ZM380.306 763.758H760.611C865.725 763.758 950.764 678.466 950.764 573.04C950.764 467.614 865.725 382.322 760.611 382.322H380.306V763.758Z" fill="white"/>
<path d="M1690.11 321.898C1735.65 345.186 1771.13 379.059 1796.02 422.461C1820.91 465.863 1833.62 516.145 1833.62 573.837C1833.62 631.523 1820.91 681.28 1796.02 724.15C1771.13 767.021 1735.65 800.37 1690.11 823.658C1644.57 846.946 1591.61 859.118 1531.24 859.118H1331.07V286.963H1531.24C1591.61 286.963 1644.57 298.61 1690.11 321.898ZM1666.81 712.503C1699.64 679.693 1716.06 633.641 1716.06 573.837C1716.06 514.027 1699.64 467.45 1666.81 434.102C1633.98 400.229 1587.38 383.821 1527.53 383.821H1446.51V762.26H1527.53C1587.38 761.729 1633.98 745.32 1666.81 712.503Z" fill="white"/>
<path d="M2333.41 665.11H2003.51C2006.14 697.961 2017.7 723.926 2037.66 742.473C2057.62 761.021 2082.31 770.556 2111.72 770.556C2154.28 770.556 2184.22 752.009 2202.08 715.453H2325C2311.86 759.427 2287.18 795.459 2249.88 823.542C2213.11 851.625 2167.41 865.929 2113.83 865.929C2070.23 865.929 2031.36 856.393 1997.21 836.79C1962.54 817.18 1935.75 789.628 1916.84 754.128C1897.4 718.627 1887.95 677.302 1887.95 630.672C1887.95 583.516 1897.4 542.185 1916.31 506.684C1935.23 471.183 1962.01 443.631 1996.16 424.56C2030.3 405.481 2069.7 395.945 2114.35 395.945C2157.43 395.945 2195.78 405.481 2229.39 424.028C2263.54 442.576 2289.8 469.065 2308.19 503.503C2327.1 537.948 2336.03 577.155 2336.03 621.136C2336.56 637.033 2335.5 651.868 2333.41 665.11ZM2218.36 587.753C2217.83 558.083 2207.33 534.767 2186.85 516.751C2166.36 498.735 2141.14 490.262 2111.2 490.262C2082.83 490.262 2059.19 498.735 2039.76 516.22C2020.32 533.705 2008.77 557.552 2004.56 588.284L2218.36 587.753Z" fill="white"/>
<path d="M2595.1 416.686C2618.66 402.859 2645.36 395.945 2675.72 395.945V517.187H2645.88C2610.29 517.187 2583.06 525.695 2565.26 542.716C2546.95 559.731 2538.04 589.51 2538.04 631.523V859.118H2424.45V402.859H2538.04V473.581C2552.7 449.653 2571.54 430.513 2595.1 416.686Z" fill="white"/>
<path d="M2763.04 333.634C2750.27 320.999 2743.63 305.204 2743.63 285.716C2743.63 266.767 2750.27 250.965 2763.04 237.805C2775.8 225.17 2792.14 218.849 2811.55 218.849C2830.95 218.849 2847.29 225.17 2860.05 237.805C2872.82 250.44 2879.46 266.767 2879.46 285.716C2879.46 304.672 2872.82 320.468 2860.05 333.634C2847.29 346.27 2830.95 352.591 2811.55 352.591C2792.14 352.591 2775.8 346.27 2763.04 333.634ZM2866.18 406.823V859.118H2755.38V406.823H2866.18Z" fill="white"/>
<path d="M3155.74 418.701C3181.47 404.976 3210.89 398.11 3243.99 398.11C3282.34 398.11 3317.54 407.612 3348.53 426.622C3379.53 445.633 3404.21 473.089 3422.6 507.936C3440.99 543.315 3449.92 583.972 3449.92 630.432C3449.92 676.899 3440.99 718.088 3422.6 753.459C3404.21 789.368 3379.53 816.825 3348.53 836.36C3317.54 855.895 3282.34 865.928 3243.99 865.928C3210.36 865.928 3180.95 859.062 3155.74 845.862C3130.52 832.661 3110.03 815.238 3095.32 794.116V858.538H2981.33V252.905H3095.32V471.502C3109.5 449.856 3129.47 431.901 3155.74 418.701ZM3316.48 559.682C3305.45 539.616 3290.74 524.829 3272.35 514.271C3253.97 503.713 3234.53 498.959 3213.52 498.959C3193.03 498.959 3173.6 504.238 3155.21 514.802C3136.82 525.36 3122.11 540.672 3111.08 561.263C3100.05 581.329 3094.27 605.087 3094.27 632.543C3094.27 660 3100.05 683.765 3111.08 703.831C3122.11 723.891 3136.82 739.203 3155.21 750.292C3173.6 760.856 3193.03 766.135 3213.52 766.135C3234.53 766.135 3254.49 760.856 3272.35 749.767C3290.74 738.678 3305.45 723.366 3316.48 703.3C3327.51 683.234 3333.29 658.944 3333.29 631.488C3333.29 602.975 3328.04 579.742 3316.48 559.682Z" fill="white"/>
<path d="M3544.99 333.634C3531.59 320.999 3524.62 305.204 3524.62 285.716C3524.62 266.767 3531.59 250.965 3544.99 237.805C3558.4 225.17 3575.55 218.849 3595.93 218.849C3616.3 218.849 3633.45 225.17 3646.86 237.805C3660.27 250.44 3667.23 266.767 3667.23 285.716C3667.23 304.672 3660.27 320.468 3646.86 333.634C3633.45 346.27 3616.3 352.591 3595.93 352.591C3575.55 352.591 3558.4 346.27 3544.99 333.634ZM3653.29 406.823V859.118H3536.95V406.823H3653.29Z" fill="white"/>
<path d="M3897.27 500.171V719.232C3897.27 734.544 3900.98 745.626 3908.39 752.485C3915.8 759.351 3927.99 762.518 3945.99 762.518H3999.47V859.117H3927.46C3830.55 859.117 3782.36 812.139 3782.36 718.176V500.171H3728.35V406.209H3782.36V293.773H3898.33V405.684H4000V499.64H3897.27V500.171Z" fill="white"/>
</svg>
